<?xml version="1.0" encoding="UTF-8" ?>
<!DOCTYPE svg PUBLIC "-//W3C//DTD SVG 1.1//EN" "http://www.w3.org/Graphics/SVG/1.1/DTD/svg11.dtd">
<svg width="756pt" height="531pt" viewBox="0 0 756 531" version="1.1" xmlns="http://www.w3.org/2000/svg">
<g opacity="0.2">
<path fill="#0c6bb5" d=" M 0.00 0.00 L 0.50 0.00 C 0.37 0.17 0.12 0.51 0.00 0.68 L 0.00 0.00 Z" />
<path fill="#ca0a13" d=" M 0.50 0.00 L 756.00 0.00 L 756.00 375.82 C 733.14 391.17 707.53 402.58 680.64 408.63 C 672.45 411.20 663.91 412.29 655.57 414.27 C 632.08 417.65 608.22 418.91 584.52 417.27 C 573.76 416.03 562.88 415.75 552.27 413.41 C 543.64 411.50 534.75 410.98 526.23 408.55 C 509.10 405.05 492.42 399.69 475.88 394.08 C 454.32 386.45 433.58 376.74 412.88 367.07 C 404.77 362.59 396.23 358.99 387.91 354.94 C 346.42 335.06 304.12 316.84 260.93 300.96 C 246.59 295.20 231.83 290.60 217.18 285.71 C 197.60 279.08 177.77 273.15 157.71 268.11 C 143.75 263.95 129.28 261.97 115.10 258.73 C 92.98 254.19 70.68 250.61 48.49 246.42 C 32.25 244.19 16.25 240.53 0.00 238.38 L 0.00 2.22 C 0.00 2.14 0.00 1.99 0.00 1.91 L 0.00 0.68 C 0.12 0.51 0.37 0.17 0.50 0.00 Z" />
<path fill="#0c6bb5" d=" M 0.00 1.91 C 0.00 1.99 0.00 2.14 0.00 2.22 L 0.00 1.91 Z" />
<path fill="#d7dac8" d=" M 0.00 238.38 C 16.25 240.53 32.25 244.19 48.49 246.42 C 70.68 250.61 92.98 254.19 115.10 258.73 C 129.28 261.97 143.75 263.95 157.71 268.11 C 177.77 273.15 197.60 279.08 217.18 285.71 C 231.83 290.60 246.59 295.20 260.93 300.96 C 304.12 316.84 346.42 335.06 387.91 354.94 C 396.23 358.99 404.77 362.59 412.88 367.07 C 433.58 376.74 454.32 386.45 475.88 394.08 C 492.42 399.69 509.10 405.05 526.23 408.55 C 534.75 410.98 543.64 411.50 552.27 413.41 C 562.88 415.75 573.76 416.03 584.52 417.27 C 608.22 418.91 632.08 417.65 655.57 414.27 C 663.91 412.29 672.45 411.20 680.64 408.63 C 707.53 402.58 733.14 391.17 756.00 375.82 L 756.00 379.78 C 727.29 399.20 693.81 410.66 659.87 416.76 C 650.40 419.08 640.65 419.77 630.95 420.30 C 622.63 420.54 614.33 421.46 606.00 421.34 C 593.97 421.61 582.00 420.29 570.03 419.36 C 561.27 418.88 552.79 416.39 544.07 415.56 C 534.43 413.80 524.81 411.84 515.28 409.59 C 493.47 403.71 471.89 396.81 451.09 387.95 C 434.24 380.76 417.54 373.18 401.17 364.91 C 362.87 346.53 324.22 328.82 284.58 313.49 C 275.38 309.46 265.70 306.69 256.49 302.70 C 242.89 297.69 229.19 292.92 215.34 288.65 C 201.07 283.45 186.39 279.52 171.83 275.26 C 156.91 270.96 141.80 267.31 126.52 264.58 C 96.64 258.15 66.49 253.16 36.40 247.89 C 24.33 245.25 11.83 244.74 0.00 241.02 L 0.00 238.38 Z" />
<path fill="#93c40f" d=" M 0.00 241.02 C 11.83 244.74 24.33 245.25 36.40 247.89 C 66.49 253.16 96.64 258.15 126.52 264.58 C 141.80 267.31 156.91 270.96 171.83 275.26 C 186.39 279.52 201.07 283.45 215.34 288.65 C 229.19 292.92 242.89 297.69 256.49 302.70 C 265.70 306.69 275.38 309.46 284.58 313.49 C 324.22 328.82 362.87 346.53 401.17 364.91 C 417.54 373.18 434.24 380.76 451.09 387.95 C 471.89 396.81 493.47 403.71 515.28 409.59 C 524.81 411.84 534.43 413.80 544.07 415.56 C 552.79 416.39 561.27 418.88 570.03 419.36 C 582.00 420.29 593.97 421.61 606.00 421.34 C 614.33 421.46 622.63 420.54 630.95 420.30 C 640.65 419.77 650.40 419.08 659.87 416.76 C 693.81 410.66 727.29 399.20 756.00 379.78 L 756.00 403.47 C 747.47 408.55 738.86 413.53 729.96 417.92 C 714.41 425.00 698.55 431.50 681.99 435.81 C 663.95 440.19 645.56 443.07 627.06 444.55 C 614.06 444.89 601.04 445.13 588.05 444.31 C 574.30 443.84 560.71 441.62 547.10 439.79 C 538.91 437.82 530.56 436.65 522.42 434.50 C 505.74 430.68 489.56 425.05 473.41 419.47 C 441.86 408.51 412.59 392.25 382.05 378.92 C 369.78 373.43 357.45 368.09 345.05 362.89 C 328.16 356.36 311.15 350.12 294.16 343.85 C 257.14 331.26 219.55 320.43 181.73 310.53 C 161.46 305.82 141.27 300.67 120.76 297.07 C 114.17 295.82 107.71 293.90 101.03 293.08 C 92.99 292.08 85.17 289.72 77.07 289.12 C 69.68 288.57 62.43 287.01 55.09 286.10 C 36.67 284.86 18.45 281.68 0.00 280.76 L 0.00 241.02 Z" />
<path fill="#d7dac8" d=" M 0.00 280.76 C 18.45 281.68 36.67 284.86 55.09 286.10 C 62.43 287.01 69.68 288.57 77.07 289.12 C 85.17 289.72 92.99 292.08 101.03 293.08 C 107.71 293.90 114.17 295.82 120.76 297.07 C 141.27 300.67 161.46 305.82 181.73 310.53 C 219.55 320.43 257.14 331.26 294.16 343.85 C 311.15 350.12 328.16 356.36 345.05 362.89 C 357.45 368.09 369.78 373.43 382.05 378.92 C 412.59 392.25 441.86 408.51 473.41 419.47 C 489.56 425.05 505.74 430.68 522.42 434.50 C 530.56 436.65 538.91 437.82 547.10 439.79 C 560.71 441.62 574.30 443.84 588.05 444.31 C 601.04 445.13 614.06 444.89 627.06 444.55 C 645.56 443.07 663.95 440.19 681.99 435.81 C 698.55 431.50 714.41 425.00 729.96 417.92 C 738.86 413.53 747.47 408.55 756.00 403.47 L 756.00 406.52 C 747.32 411.41 738.72 416.45 729.74 420.77 C 714.26 427.65 698.46 433.99 682.01 438.14 C 675.05 440.46 667.67 440.85 660.59 442.67 C 654.35 444.26 647.90 444.62 641.52 445.36 C 618.49 448.30 595.11 447.95 572.08 445.20 C 555.54 444.19 539.26 440.82 523.17 436.99 C 518.80 436.14 514.42 435.28 510.20 433.84 C 488.83 427.74 467.71 420.65 447.34 411.74 C 430.83 405.06 415.06 396.72 398.91 389.24 C 383.04 381.94 367.07 374.86 350.99 368.05 C 334.83 361.17 318.23 355.42 301.82 349.22 C 274.60 339.28 246.78 331.15 218.99 323.00 C 195.15 316.45 171.24 310.16 147.06 304.99 C 137.86 302.37 128.35 301.22 119.06 299.01 C 97.27 294.64 75.37 290.60 53.21 288.60 C 35.54 286.04 17.70 285.16 0.00 282.87 L 0.00 280.76 Z" />
<path fill="#0c6bb5" d=" M 0.00 282.87 C 17.70 285.16 35.54 286.04 53.21 288.60 C 75.37 290.60 97.27 294.64 119.06 299.01 C 128.35 301.22 137.86 302.37 147.06 304.99 C 171.24 310.16 195.15 316.45 218.99 323.00 C 246.78 331.15 274.60 339.28 301.82 349.22 C 318.23 355.42 334.83 361.17 350.99 368.05 C 367.07 374.86 383.04 381.94 398.91 389.24 C 415.06 396.72 430.83 405.06 447.34 411.74 C 467.71 420.65 488.83 427.74 510.20 433.84 C 514.42 435.28 518.80 436.14 523.17 436.99 C 539.26 440.82 555.54 444.19 572.08 445.20 C 595.11 447.95 618.49 448.30 641.52 445.36 C 647.90 444.62 654.35 444.26 660.59 442.67 C 667.67 440.85 675.05 440.46 682.01 438.14 C 698.46 433.99 714.26 427.65 729.74 420.77 C 738.72 416.45 747.32 411.41 756.00 406.52 L 756.00 428.52 C 740.39 438.62 723.52 446.60 706.11 453.10 C 675.24 465.21 641.95 469.51 608.99 470.61 C 592.60 469.99 576.12 469.74 559.87 467.26 C 550.27 465.19 540.42 464.52 530.90 462.10 C 504.76 456.08 478.88 448.56 454.29 437.76 C 435.12 430.09 416.66 420.83 397.98 412.06 C 383.38 404.88 368.04 399.38 353.16 392.81 C 333.78 385.49 314.04 379.17 294.40 372.61 C 280.50 368.26 266.41 364.58 252.45 360.46 C 225.75 353.66 198.87 347.54 171.77 342.56 C 164.08 341.71 156.70 339.16 149.00 338.38 C 141.26 337.62 133.74 335.50 126.00 334.70 C 116.95 333.65 107.95 332.22 98.93 330.98 C 82.87 329.59 67.01 326.48 50.89 325.76 C 34.00 323.62 17.00 322.63 0.00 321.89 L 0.00 282.87 Z" />
<path fill="#d7dac8" d=" M 0.00 321.89 C 17.00 322.63 34.00 323.62 50.89 325.76 C 67.01 326.48 82.87 329.59 98.93 330.98 C 107.95 332.22 116.95 333.65 126.00 334.70 C 133.74 335.50 141.26 337.62 149.00 338.38 C 156.70 339.16 164.08 341.71 171.77 342.56 C 198.87 347.54 225.75 353.66 252.45 360.46 C 266.41 364.58 280.50 368.26 294.40 372.61 C 314.04 379.17 333.78 385.49 353.16 392.81 C 368.04 399.38 383.38 404.88 397.98 412.06 C 416.66 420.83 435.12 430.09 454.29 437.76 C 478.88 448.56 504.76 456.08 530.90 462.10 C 540.42 464.52 550.27 465.19 559.87 467.26 C 576.12 469.74 592.60 469.99 608.99 470.61 C 641.95 469.51 675.24 465.21 706.11 453.10 C 723.52 446.60 740.39 438.62 756.00 428.52 L 756.00 430.87 C 741.89 441.21 725.52 447.98 709.35 454.42 C 673.84 468.59 635.29 473.24 597.26 473.07 C 584.65 472.13 571.96 471.78 559.49 469.48 C 534.12 466.47 509.42 459.55 485.07 452.01 C 467.66 446.46 450.96 439.00 434.16 431.86 C 419.12 424.99 404.33 417.60 389.29 410.75 C 378.33 405.47 366.77 401.58 355.74 396.48 C 338.94 389.76 321.70 384.27 304.59 378.42 C 291.42 373.89 278.03 370.03 264.55 366.53 C 250.86 361.80 236.56 359.24 222.58 355.54 C 190.49 348.25 158.16 342.02 125.60 337.25 C 111.87 334.70 97.92 333.81 84.14 331.63 C 69.76 330.16 55.42 328.35 41.03 326.95 C 27.34 326.21 13.68 324.90 0.00 324.03 L 0.00 321.89 Z" />
<path fill="#dc6c09" d=" M 0.00 324.03 C 13.68 324.90 27.34 326.21 41.03 326.95 C 55.42 328.35 69.76 330.16 84.14 331.63 C 97.92 333.81 111.87 334.70 125.60 337.25 C 158.16 342.02 190.49 348.25 222.58 355.54 C 236.56 359.24 250.86 361.80 264.55 366.53 C 278.03 370.03 291.42 373.89 304.59 378.42 C 321.70 384.27 338.94 389.76 355.74 396.48 C 366.77 401.58 378.33 405.47 389.29 410.75 C 404.33 417.60 419.12 424.99 434.16 431.86 C 450.96 439.00 467.66 446.46 485.07 452.01 C 509.42 459.55 534.12 466.47 559.49 469.48 C 571.96 471.78 584.65 472.13 597.26 473.07 C 635.29 473.24 673.84 468.59 709.35 454.42 C 725.52 447.98 741.89 441.21 756.00 430.87 L 756.00 452.85 C 738.47 464.56 719.04 473.16 699.20 480.15 C 680.84 486.21 661.82 490.33 642.64 492.73 C 634.20 493.97 625.65 493.54 617.18 494.28 C 607.80 494.89 598.38 494.75 589.03 493.94 C 577.21 493.56 565.43 492.29 553.81 490.10 C 545.27 489.03 536.81 487.45 528.46 485.38 C 512.28 482.29 496.66 476.92 481.02 471.88 C 457.61 464.07 435.33 453.37 413.00 442.97 C 393.35 432.70 372.36 425.41 351.91 416.95 C 336.21 411.61 320.51 406.28 304.68 401.34 C 279.08 394.28 253.38 387.46 227.24 382.69 C 223.40 381.87 219.62 380.84 215.75 380.20 C 203.61 378.49 191.65 375.64 179.44 374.37 C 150.53 369.42 121.22 367.59 92.06 364.82 C 70.73 363.48 49.38 362.23 28.00 362.52 C 18.66 362.79 9.34 361.87 0.00 362.08 L 0.00 324.03 Z" />
<path fill="#d7dac8" d=" M 0.00 362.08 C 9.34 361.87 18.66 362.79 28.00 362.52 C 49.38 362.23 70.73 363.48 92.06 364.82 C 121.22 367.59 150.53 369.42 179.44 374.37 C 191.65 375.64 203.61 378.49 215.75 380.20 C 219.62 380.84 223.40 381.87 227.24 382.69 C 253.38 387.46 279.08 394.28 304.68 401.34 C 320.51 406.28 336.21 411.61 351.91 416.95 C 372.36 425.41 393.35 432.70 413.00 442.97 C 435.33 453.37 457.61 464.07 481.02 471.88 C 496.66 476.92 512.28 482.29 528.46 485.38 C 536.81 487.45 545.27 489.03 553.81 490.10 C 565.43 492.29 577.21 493.56 589.03 493.94 C 598.38 494.75 607.80 494.89 617.18 494.28 C 625.65 493.54 634.20 493.97 642.64 492.73 C 661.82 490.33 680.84 486.21 699.20 480.15 C 719.04 473.16 738.47 464.56 756.00 452.85 L 756.00 455.83 C 738.92 466.99 720.14 475.30 700.91 481.98 C 687.00 487.24 672.33 489.87 657.86 493.01 C 633.13 496.63 607.99 498.41 583.05 496.14 C 571.99 495.17 560.94 493.90 549.99 492.08 C 540.90 489.94 531.50 489.34 522.57 486.51 C 507.10 483.06 492.03 478.04 476.99 473.05 C 459.10 466.96 441.90 459.07 424.76 451.18 C 413.27 446.14 402.35 439.91 390.67 435.31 C 381.63 431.08 372.13 428.00 362.99 424.01 C 349.58 418.24 335.56 414.13 321.81 409.29 C 301.51 402.48 280.72 397.33 259.99 392.03 C 252.29 390.34 244.68 388.21 236.86 387.08 C 221.24 383.68 205.53 380.67 189.71 378.30 C 178.72 375.89 167.44 375.48 156.40 373.42 C 147.65 371.85 138.75 371.63 129.92 370.82 C 118.88 369.47 107.80 368.38 96.71 367.62 C 73.48 366.61 50.28 364.52 27.00 364.72 C 18.00 364.87 9.01 364.22 0.00 364.26 L 0.00 362.08 Z" />
<path fill="#ca0a13" d=" M 0.00 364.26 C 9.01 364.22 18.00 364.87 27.00 364.72 C 50.28 364.52 73.48 366.61 96.71 367.62 C 107.80 368.38 118.88 369.47 129.92 370.82 C 138.75 371.63 147.65 371.85 156.40 373.42 C 167.44 375.48 178.72 375.89 189.71 378.30 C 205.53 380.67 221.24 383.68 236.86 387.08 C 244.68 388.21 252.29 390.34 259.99 392.03 C 280.72 397.33 301.51 402.48 321.81 409.29 C 335.56 414.13 349.58 418.24 362.99 424.01 C 372.13 428.00 381.63 431.08 390.67 435.31 C 402.35 439.91 413.27 446.14 424.76 451.18 C 441.90 459.07 459.10 466.96 476.99 473.05 C 492.03 478.04 507.10 483.06 522.57 486.51 C 531.50 489.34 540.90 489.94 549.99 492.08 C 560.94 493.90 571.99 495.17 583.05 496.14 C 607.99 498.41 633.13 496.63 657.86 493.01 C 672.33 489.87 687.00 487.24 700.91 481.98 C 720.14 475.30 738.92 466.99 756.00 455.83 L 756.00 531.00 L 0.00 531.00 L 0.00 364.26 Z" />
</g>
</svg>
